<?xml version="1.0" encoding="UTF-8"?>
<!DOCTYPE svg PUBLIC "-//W3C//DTD SVG 1.1//EN" "http://www.w3.org/Graphics/SVG/1.1/DTD/svg11.dtd">
<svg version="1.1" xmlns="http://www.w3.org/2000/svg" xmlns:xlink="http://www.w3.org/1999/xlink" width="64" height="64" viewBox="0 0 64 64">
	<symbol id="appliances" viewBox="0 0 64 64">
		<title>Appliances</title>
		<desc>appliances symbol</desc>
		<g fill="currentColor">
			<path d="M44,19v-8c0-1.1-0.9-2-2-2h-2c-1.1,0-2,0.9-2,2v8H26v-8c0-1.1-0.9-2-2-2h-2c-1.1,0-2,0.9-2,2v8h-6v6h36v-6H44z"/>
			<path d="M16,27v6c0,6.5,3.2,10.9,9,13v3h4v6h6v-6h4v-3c5.8-2.1,9-6.5,9-13v-6H16z"/>
		</g>
	</symbol>
	<symbol id="fan" viewBox="0 0 64 64">
		<title>Fan</title>
		<desc>Fan symbol</desc>
		<g fill="currentColor">
			<path d="M32,10c-12.15,0-22,9.85-22,22c0,12.15,9.85,22,22,22c12.15,0,22-9.85,22-22C54,19.85,44.15,10,32,10z M32,52   c-11.05,0-20-8.95-20-20c0-11.05,8.95-20,20-20c11.05,0,20,8.95,20,20C52,43.05,43.05,52,32,52z"/>
			<path
					d="M50.01,30.22c-0.17-1.66-1.52-2.02-2.82-0.98c-2.63,2.09-5.31,3.43-8.26,3.74C38.97,32.66,39,32.33,39,32   c0-1.08-0.25-2.11-0.7-3.03c3.19-2.31,5.35-5.51,4.76-9.05c-1.01-6.04-9.65-6.26-12.84-5.94c-1.66,0.17-2.02,1.52-0.98,2.82   c2.09,2.63,3.43,5.31,3.74,8.26C32.66,25.03,32.33,25,32,25c-1.09,0-2.11,0.25-3.03,0.69c-2.31-3.19-5.51-5.35-9.05-4.76   c-6.04,1.01-6.26,9.65-5.94,12.84c0.17,1.66,1.52,2.02,2.82,0.98c2.63-2.09,5.31-3.43,8.26-3.75C25.03,31.34,25,31.67,25,32   c0,1.08,0.25,2.11,0.69,3.03c-3.19,2.31-5.35,5.51-4.76,9.05c1.01,6.04,9.65,6.25,12.84,5.94c1.66-0.17,2.02-1.52,0.98-2.82   c-2.09-2.63-3.43-5.31-3.75-8.26C31.34,38.97,31.67,39,32,39c1.08,0,2.11-0.25,3.03-0.7c2.31,3.19,5.51,5.35,9.05,4.76   C50.11,42.06,50.33,33.42,50.01,30.22z M27,32c0-2.76,2.24-5,5-5c2.76,0,5,2.24,5,5c0,2.76-2.24,5-5,5C29.24,37,27,34.76,27,32z"/>
			<circle cx="32" cy="32" r="3"/>
		</g>
	</symbol>
	<symbol id="home" viewBox="0 0 64 64">
		<title>Home</title>
		<desc>Home symbol</desc>
		<g fill="currentColor">
			<polygon points="10,29 32,10 54,29"/>
			<polygon points="15,31 15,51 28,51 28,42 36,42 36,51 49,51 49,31"/>
		</g>
	</symbol>
	<symbol id="info" viewBox="0 0 64 64">
		<title>Info</title>
		<desc>Info symbol</desc>
		<g fill="currentColor">
			<path d="M32,45c-2,4,3,2,5,0c2-2,5,0,2,3c-10,10-22,6-19,0.1L28,29c2.5-4.7-2-3-5,0c-2,2-5,0-2-3c12-12,21-4,18.8,0.9L32,45z"/>
			<circle cx="39" cy="13" r="5"/>
		</g>
	</symbol>
	<symbol id="menu" viewBox="0 0 64 64">
		<title>Menu</title>
		<desc>Menu symbol</desc>
		<g fill="currentColor">
			<rect x="10" y="16" width="44" height="6"/>
			<rect x="10" y="30" width="44" height="6"/>
			<rect x="10" y="44" width="44" height="6"/>
		</g>
	</symbol>
	<symbol id="menu-arrow" viewBox="0 0 64 64">
		<title>Menu Arrow</title>
		<desc>Menu Arrow symbol</desc>
		<g fill="currentColor">
			<rect x="25" y="16" width="14" height="6"/>
			<rect x="15" y="30" width="34" height="6"/>
			<rect x="5" y="44" width="54" height="6"/>
		</g>
	</symbol>
	<symbol id="settings" viewBox="0 0 64 64">
		<title>Settings</title>
		<desc>Settings symbol</desc>
		<g fill="currentColor">
			<path
					d="M53,35v-6h-4.8c-0.4-2.3-1.3-4.5-2.6-6.3l3.4-3.4L44.7,15l-3.4,3.4c-1.9-1.3-4-2.2-6.3-2.6V11h-6v4.8   c-2.3,0.4-4.5,1.3-6.4,2.6L19.3,15L15,19.3l3.4,3.4c-1.3,1.9-2.2,4-2.6,6.3H11v6h4.8c0.4,2.3,1.3,4.5,2.6,6.3L15,44.7l4.2,4.2   l3.4-3.4c1.9,1.3,4,2.2,6.3,2.6V53h6v-4.8c2.3-0.4,4.5-1.3,6.3-2.6l3.4,3.4l4.2-4.2l-3.4-3.4c1.3-1.9,2.2-4,2.6-6.3H53z M32,40.4c-4.6,0-8.4-3.8-8.4-8.4c0-4.6,3.8-8.4,8.4-8.4c4.6,0,8.4,3.8,8.4,8.4C40.4,36.6,36.6,40.4,32,40.4z"/>
		</g>
	</symbol>
	<symbol id="thermometer" viewBox="0 0 64 64">
		<title>Thermometer</title>
		<desc>Thermometer symbol</desc>
		<g fill="currentColor">
			<path
					d="M41,30.84V18c0-5.52-4.48-10-10-10c-5.52,0-10,4.48-10,10v12.84c-3.06,2.75-5,6.72-5,11.16c0,8.28,6.72,15,15,15   c8.28,0,15-6.72,15-15C46,37.56,44.06,33.59,41,30.84z M31,53c-6.08,0-11-4.93-11-11c0-3.86,1.99-7.25,5-9.21V18c0-3.31,2.69-6,6-6   s6,2.69,6,6v14.79c3.01,1.96,5,5.35,5,9.21C42,48.07,37.07,53,31,53z"/>
			<path d="M33.5,35.47V23h-5v12.47C25.87,36.48,24,39.02,24,42c0,3.87,3.13,7,7,7c3.87,0,7-3.13,7-7C38,39.02,36.13,36.48,33.5,35.47z"/>
			<rect x="44" y="15" width="8" height="2"/>
			<rect x="44" y="21" width="8" height="2"/>
			<rect x="44" y="27" width="8" height="2"/>
		</g>
	</symbol>
	<symbol id="thermometer-tiny" viewBox="0 0 64 64">
		<title>Thermometer</title>
		<desc>Thermometer symbol</desc>
		<g fill="currentColor">
			<rect x="44" y="14" width="8" height="2"/>
			<rect x="44" y="20" width="8" height="2"/>
			<rect x="45" y="26" width="7" height="2"/>
			<path
					d="M39.5,29.89V18.5c0-4.69-3.81-8.5-8.5-8.5c-4.69,0-8.5,3.81-8.5,8.5v11.39C19.16,32.45,17,36.47,17,41   c0,7.73,6.27,14,14,14c7.73,0,14-6.27,14-14C45,36.47,42.84,32.45,39.5,29.89z M31,52.5c-6.35,0-11.5-5.15-11.5-11.5   c0-4.15,2.21-7.77,5.5-9.8V18.5c0-3.31,2.69-6,6-6c3.31,0,6,2.69,6,6v12.7c3.29,2.02,5.5,5.65,5.5,9.8   C42.5,47.35,37.35,52.5,31,52.5z"/>
			<path d="M33,34.29V22h-4v12.29c-2.89,0.86-5,3.54-5,6.71c0,3.87,3.13,7,7,7s7-3.13,7-7C38,37.83,35.89,35.15,33,34.29z"/>
		</g>
	</symbol>
	<symbol id="glow" viewBox="0 0 64 64">
		<g class="glow">
			<circle cx="32" cy="32" r="32"/>
		</g>
	</symbol>
	<symbol id="icon-dot" viewBox="0 0 64 64">
		<g class="icon-dot" fill="currentColor">
			<circle cx="56" cy="8" r="6"/>
		</g>
	</symbol>
	<symbol id="chart" viewBox="-4 -4 32 32">
		<title>Chart</title>
		<desc>Chart symbol</desc>
		<g fill="currentColor">
			<path d="M7,12v9a1,1,0,0,1-1,1H3a1,1,0,0,1-1-1V12a1,1,0,0,1,1-1H6A1,1,0,0,1,7,12ZM21,6H18a1,1,0,0,0-1,1V21a1,1,0,0,0,1,1h3a1,1,0,0,0,1-1V7A1,1,0,0,0,21,6ZM13.5,2h-3a1,1,0,0,0-1,1V21a1,1,0,0,0,1,1h3a1,1,0,0,0,1-1V3A1,1,0,0,0,13.5,2Z"></path>
		</g>
	</symbol>
	<symbol id="humidity" viewBox="-4 -4 32 32">
		<title>Humidity</title>
		<desc>Humidity symbol</desc>
		<g fill="currentColor">
			<path d="M15.0066 3.25608C16.8483 2.85737 19.1331 2.8773 22.2423 3.65268C22.7781 3.78629 23.1038 4.32791 22.9699 4.86241C22.836 5.39691 22.2931 5.7219 21.7573 5.58829C18.8666 4.86742 16.9015 4.88747 15.4308 5.20587C13.9555 5.52524 12.895 6.15867 11.7715 6.84363L11.6874 6.89494C10.6044 7.55565 9.40515 8.28729 7.82073 8.55069C6.17734 8.82388 4.23602 8.58235 1.62883 7.54187C1.11607 7.33724 0.866674 6.75667 1.0718 6.24513C1.27692 5.73359 1.85889 5.48479 2.37165 5.68943C4.76435 6.6443 6.32295 6.77699 7.492 6.58265C8.67888 6.38535 9.58373 5.83916 10.7286 5.14119C11.855 4.45445 13.1694 3.6538 15.0066 3.25608Z"/>
			<path d="M22.2423 7.64302C19.1331 6.86765 16.8483 6.84772 15.0066 7.24642C13.1694 7.64415 11.855 8.44479 10.7286 9.13153C9.58373 9.8295 8.67888 10.3757 7.492 10.573C6.32295 10.7673 4.76435 10.6346 2.37165 9.67977C1.85889 9.47514 1.27692 9.72393 1.0718 10.2355C0.866674 10.747 1.11607 11.3276 1.62883 11.5322C4.23602 12.5727 6.17734 12.8142 7.82073 12.541C9.40515 12.2776 10.6044 11.546 11.6874 10.8853L11.7715 10.834C12.895 10.149 13.9555 9.51558 15.4308 9.19621C16.9015 8.87781 18.8666 8.85777 21.7573 9.57863C22.2931 9.71224 22.836 9.38726 22.9699 8.85275C23.1038 8.31825 22.7781 7.77663 22.2423 7.64302Z"/>
			<path fill-rule="evenodd" clip-rule="evenodd" d="M18.9998 10.0266C18.6526 10.0266 18.3633 10.2059 18.1614 10.4772C18.0905 10.573 17.9266 10.7972 17.7089 11.111C17.4193 11.5283 17.0317 12.1082 16.6424 12.7555C16.255 13.3996 15.8553 14.128 15.5495 14.8397C15.2567 15.5213 14.9989 16.2614 14.9999 17.0117C15.0006 17.2223 15.0258 17.4339 15.0604 17.6412C15.1182 17.9872 15.2356 18.4636 15.4804 18.9521C15.7272 19.4446 16.1131 19.9674 16.7107 20.3648C17.3146 20.7664 18.0748 21 18.9998 21C19.9248 21 20.685 20.7664 21.2888 20.3648C21.8864 19.9674 22.2724 19.4446 22.5192 18.9522C22.764 18.4636 22.8815 17.9872 22.9393 17.6413C22.974 17.4337 22.9995 17.2215 22.9998 17.0107C23.0001 16.2604 22.743 15.5214 22.4501 14.8397C22.1444 14.128 21.7447 13.3996 21.3573 12.7555C20.968 12.1082 20.5803 11.5283 20.2907 11.111C20.073 10.7972 19.909 10.573 19.8382 10.4772C19.6363 10.2059 19.3469 10.0266 18.9998 10.0266ZM20.6119 15.6257C20.3552 15.0281 20.0049 14.3848 19.6423 13.782C19.4218 13.4154 19.2007 13.0702 18.9998 12.7674C18.7989 13.0702 18.5778 13.4154 18.3573 13.782C17.9948 14.3848 17.6445 15.0281 17.3878 15.6257L17.3732 15.6595C17.1965 16.0704 16.9877 16.5562 17.0001 17.0101C17.0121 17.3691 17.1088 17.7397 17.2693 18.0599C17.3974 18.3157 17.574 18.5411 17.8201 18.7048C18.06 18.8643 18.4248 19.0048 18.9998 19.0048C19.5748 19.0048 19.9396 18.8643 20.1795 18.7048C20.4256 18.5411 20.6022 18.3156 20.7304 18.0599C20.8909 17.7397 20.9876 17.3691 20.9996 17.01C21.0121 16.5563 20.8032 16.0705 20.6265 15.6597L20.6119 15.6257Z"/>
			<path d="M14.1296 11.5308C14.8899 11.2847 15.4728 12.076 15.1153 12.7892C14.952 13.1151 14.7683 13.3924 14.4031 13.5214C13.426 13.8666 12.6166 14.3527 11.7715 14.8679L11.6874 14.9192C10.6044 15.5799 9.40516 16.3115 7.82074 16.5749C6.17735 16.8481 4.23604 16.6066 1.62884 15.5661C1.11608 15.3615 0.866688 14.7809 1.07181 14.2694C1.27694 13.7578 1.8589 13.509 2.37167 13.7137C4.76436 14.6685 6.32297 14.8012 7.49201 14.6069C8.67889 14.4096 9.58374 13.8634 10.7286 13.1654C11.8166 12.5021 12.9363 11.9171 14.1296 11.5308Z"/>
		</g>
	</symbol>
</svg>
